<svg viewBox="0 0 80 18" fill="none" xmlns="http://www.w3.org/2000/svg"><path d="M61.7051 16.8127V0.353516H65.0557L71.463 8.73376L70.0875 8.75727L76.2009 0.353516H79.528V16.8127H76.1539L76.2127 4.84452L76.8357 5.06789L70.6165 12.7156L64.2445 5.06789L64.8323 4.84452L64.8911 16.8127H61.7051Z" fill="#FFFFFF"/><path d="M46.4883 16.8127V0.353516H53.0132C54.2045 0.353516 55.243 0.553377 56.1287 0.9531C57.0221 1.34499 57.7079 1.91322 58.186 2.6578C58.672 3.40238 58.915 4.29196 58.915 5.32653C58.915 6.14166 58.7543 6.8588 58.4329 7.47798C57.9037 8.48481 57.4528 9.43765 55.7675 10.1306L59.5672 16.8127H55.6349L52.3261 10.5582H49.9682V16.8127H46.4883ZM49.9682 7.74838H52.5547C53.4482 7.74838 54.1457 7.56812 54.6473 7.20758C55.1568 6.83921 55.4115 6.28273 55.4115 5.53815C55.4115 4.77006 55.1764 4.19399 54.7061 3.80994C54.2437 3.42589 53.5657 3.23387 52.6722 3.23387H49.9682V7.74838Z" fill="#FFFFFF"/><path d="M35.5105 17.1646C34.2565 17.1646 33.0965 16.949 32.0306 16.5179C30.9646 16.079 30.0398 15.4716 29.256 14.6957C28.4723 13.9197 27.8609 13.0106 27.422 11.9682C26.9909 10.9257 26.7754 9.79712 26.7754 8.58228C26.7754 7.3596 26.9909 6.22705 27.422 5.18464C27.8609 4.14222 28.4723 3.23305 29.256 2.45712C30.0398 1.68119 30.9646 1.07768 32.0306 0.646609C33.0965 0.215536 34.2565 0 35.5105 0C36.7645 0 37.9206 0.219456 38.9787 0.658367C40.0446 1.09728 40.9695 1.70862 41.7532 2.49239C42.5448 3.27616 43.1601 4.18925 43.599 5.23166C44.0379 6.26624 44.2574 7.38311 44.2574 8.58228C44.2574 9.79712 44.0379 10.9257 43.599 11.9682C43.1601 13.0106 42.5448 13.9197 41.7532 14.6957C40.9695 15.4716 40.0446 16.079 38.9787 16.5179C37.9206 16.949 36.7645 17.1646 35.5105 17.1646ZM35.5105 13.8962C36.2394 13.8962 36.9135 13.7708 37.5326 13.52C38.1518 13.2692 38.6926 12.9126 39.155 12.4502C39.6175 11.9799 39.9741 11.4195 40.2249 10.769C40.4835 10.1185 40.6128 9.38956 40.6128 8.58228C40.6128 7.50851 40.3895 6.57583 39.9427 5.78422C39.496 4.98477 38.8886 4.3656 38.1205 3.92669C37.3524 3.48777 36.4824 3.26832 35.5105 3.26832C34.7894 3.26832 34.1154 3.39372 33.4884 3.64453C32.8692 3.89534 32.3284 4.25195 31.866 4.71437C31.4114 5.1768 31.0548 5.73719 30.7961 6.39556C30.5453 7.04609 30.4199 7.77499 30.4199 8.58228C30.4199 9.65604 30.6433 10.5926 31.09 11.3921C31.5368 12.1837 32.1442 12.799 32.9123 13.2379C33.6804 13.6768 34.5465 13.8962 35.5105 13.8962Z" fill="#FFFFFF"/><path d="M18.2761 16.8127V3.52778H13.8086V0.353516H26.247V3.52778H21.7795V16.8127H18.2761Z" fill="#FFFFFF"/><path d="M6.44259 17.1645C5.22774 17.1645 4.04817 16.9882 2.90387 16.6355C1.75956 16.2828 0.791607 15.7694 0 15.0954L1.65767 12.4854C2.01821 12.8459 2.46104 13.1555 2.98616 13.4142C3.51913 13.6728 4.08344 13.8727 4.6791 14.0138C5.28261 14.147 5.87435 14.2136 6.45434 14.2136C7.34784 14.2136 8.07283 14.0569 8.6293 13.7434C9.18578 13.4299 9.46402 12.9714 9.46402 12.3678C9.46402 11.8819 9.26808 11.4783 8.87619 11.1569C8.48431 10.8277 7.7554 10.5142 6.68947 10.2164L5.18464 9.79317C3.53088 9.33074 2.33955 8.70373 1.61065 7.91212C0.881741 7.12051 0.517288 6.16039 0.517288 5.03176C0.517288 4.29502 0.670123 3.62098 0.975793 3.00964C1.28146 2.3983 1.70862 1.86925 2.25726 1.4225C2.81373 0.975755 3.46818 0.630896 4.2206 0.387928C4.98086 0.137122 5.80381 0.0117188 6.68947 0.0117188C7.88864 0.0117188 9.00159 0.188067 10.0283 0.540763C11.0629 0.885621 11.9015 1.3598 12.5442 1.96331L10.8278 4.49096C10.5143 4.17745 10.1341 3.90705 9.68739 3.67976C9.24848 3.45247 8.77038 3.27612 8.2531 3.15072C7.73581 3.01748 7.2146 2.95086 6.68947 2.95086C6.12516 2.95086 5.62747 3.02923 5.19639 3.18599C4.77316 3.3349 4.44397 3.55436 4.20884 3.84435C3.97371 4.12651 3.85615 4.46745 3.85615 4.86717C3.85615 5.17284 3.93844 5.4354 4.10303 5.65486C4.27546 5.86648 4.56154 6.06634 4.96126 6.25444C5.36882 6.44255 5.9253 6.63849 6.63069 6.84227L8.18256 7.30078C9.8128 7.77888 10.9963 8.3863 11.733 9.12304C12.4698 9.85979 12.8381 10.816 12.8381 11.9916C12.8381 13.0105 12.5795 13.9119 12.0622 14.6956C11.5528 15.4716 10.816 16.079 9.85199 16.5179C8.89579 16.949 7.75932 17.1645 6.44259 17.1645Z" fill="#FFFFFF"/></svg>
